<svg xmlns="http://www.w3.org/2000/svg" viewBox="0 0 200 200" width="512" height="512">
      <!-- Soft background circle -->
      <circle cx="100" cy="100" r="85" fill="#F5F7FA"/>

      <!-- Outline star (empty) -->
      <path d="M100 55 L112 82 L141 85 L119 105 L126 134 L100 119 L74 134 L81 105 L59 85 L88 82 Z"
        fill="white" stroke="#C0C8D0" stroke-width="2.5" stroke-linejoin="round"/>

      <!-- Dashed inner star (suggesting it's waiting to be filled) -->
      <path d="M100 65 L109 84 L130 86 L115 99 L120 120 L100 109 L80 120 L85 99 L70 86 L91 84 Z"
        fill="none" stroke="#DDE3EA" stroke-width="1.5" stroke-dasharray="2 3"/>

      <!-- Small heart floating -->
      <path d="M145 50 C143 47 139 47 137 50 C135 47 131 47 129 50 C129 54 137 60 137 60 C137 60 145 54 145 50 Z"
        fill="#FFD3D3" stroke="#FF9999" stroke-width="1.5" stroke-linejoin="round"/>

      <!-- Dots -->
      <circle cx="55" cy="50" r="2" fill="#DDE3EA"/>
      <circle cx="50" cy="120" r="2.5" fill="#DDE3EA"/>
      <circle cx="155" cy="115" r="2" fill="#DDE3EA"/>
    </svg>